# xmcd
#
# Track frame offsets: 
#        150
#        11524
#        24730
#        35180
#        49090
#        60702
#        72935
#        85601
#        98363
#        108477
#        120894
#        135262
#        145362
#        160588
#        173405
#        188429
#        201665
#        216140
#        229721
#        242187
#
# Disc length: 3395 seconds
#
# Revision: 0
# Processed by: cddbd v1.5.2PL0 Copyright (c) Steve Scherf et al.
# Submitted via: ExactAudioCopyFreeDBPlugin 1.0
#
DISCID=050d4114
DTITLE=Ray Charles - Elvis and Friends CD 12
DYEAR=1900
DGENRE=Rock and Roll
TTITLE0=Halleluja I Love Her So
TTITLE1=Don´t You Know
TTITLE2=Black Jack
TTITLE3=Come Back Baby
TTITLE4=How Long, How Long Blues
TTITLE5=It Should Have Been Me
TTITLE6=Feelin´Sad
TTITLE7=Greenbacks
TTITLE8=Ain´t That Fine
TTITLE9=Jumpin´At The Morning
TTITLE10=Losing Hand
TTITLE11=Yes Indeed
TTITLE12=Sinner´s Prayer
TTITLE13=Heartbreaker
TTITLE14=Drown In My Own Tears
TTITLE15=Baby, Won´t You Please
TTITLE16=Funny But I Still Love You
TTITLE17=Believe To My Soul
TTITLE18=Mary Ann
TTITLE19=Wonder Who
EXTD=
EXTT0=
EXTT1=
EXTT2=
EXTT3=
EXTT4=
EXTT5=
EXTT6=
EXTT7=
EXTT8=
EXTT9=
EXTT10=
EXTT11=
EXTT12=
EXTT13=
EXTT14=
EXTT15=
EXTT16=
EXTT17=
EXTT18=
EXTT19=
PLAYORDER=
